<?xml version="1.0" encoding="iso-8859-1"?>
<!-- Generator: Adobe Illustrator 25.4.1, SVG Export Plug-In . SVG Version: 6.00 Build 0)  -->
<svg version="1.1" id="Layer_1" xmlns="http://www.w3.org/2000/svg" xmlns:xlink="http://www.w3.org/1999/xlink" x="0px" y="0px"
	 viewBox="0 0 7500 5000" style="enable-background:new 0 0 7500 5000;" xml:space="preserve">
<rect style="fill:none;" width="7500" height="5000"/>
<g>
	<path style="fill:#FFFFFF;" d="M7034.262,3150.857c166.931-1.529,213.876-5.645,315.218-27.638
		c15.264-3.312,28.2-6.024,28.746-6.024c3.584,0-0.054-11.791-4.871-15.791c-4.66-3.865-11.789-3.577-34.694,1.406
		c-207.049,45.03-579.253,32.413-1148.951-38.95c-286.216-35.851-639.166-93.171-866.359-140.698
		c-155.396-32.507-389.217-89.968-622.51-152.982c-270.949-73.184-454.288-115.594-558.079-129.094
		c-21.262-2.764-38.647-6.056-38.647-7.317c0.007-1.259,29.001-15.526,64.432-31.704
		c136.799-62.465,395.354-195.309,577.892-296.917c29.44-16.389,76.723-42.654,105.073-58.368
		c28.35-15.714,83.662-46.848,122.916-69.189c216.145-123.011,264.113-150.046,390.555-220.126
		c204.462-113.32,401.733-216.724,624.493-327.336c94.73-47.04,145.477-73.505,163.182-85.107
		c10.654-6.981,12.086-18.482,3.218-25.842c-5.07-4.209-14.446-1.226-56.501,17.97c-27.733,12.659-65.589,29.937-84.125,38.397
		c-99.477,45.398-345.027,167.222-453.996,225.238c-134.634,71.681-358.902,196.334-767.234,426.442
		c-227.457,128.18-688.004,361.887-696.467,353.425c-4.087-4.088,143.217-198.888,258.331-341.623
		c30.531-37.858,65.964-81.912,78.739-97.9c12.775-15.989,50.245-60.066,83.266-97.951c33.021-37.885,61.822-71.762,64.002-75.279
		c9.115-14.706,124.344-138.497,194.287-208.723c77.11-77.423,154.715-148.59,162.29-148.824
		c7.103-0.221,22.084-14.622,22.084-21.229c0-3.416-4.349-9.06-9.665-12.545c-8.95-5.865-10.934-5.768-26.764,1.298
		c-24.473,10.922-90.288,61.306-142.62,109.182c-51.801,47.389-170.251,168.335-212.723,217.204
		c-50.423,58.018-152.089,179.645-158.781,189.956c-3.539,5.452-23.478,31.324-44.307,57.494
		c-37.23,46.772-127.111,164.588-138.565,181.63c-3.213,4.781-18.472,25.642-33.91,46.359
		c-15.437,20.717-33.469,45.697-40.073,55.51c-6.604,9.813-21.677,31.419-33.497,48.014c-11.819,16.593-37.077,52.473-56.13,79.732
		c-42.673,61.053-40.667,60.104-139.82,66.168c-107.778,6.591-169.951,22.524-189.365,48.525
		c-7.266,9.734-7.321,10.911-1.053,23.033c10.236,19.791,35.869,29.466,68.996,26.039c34.154-3.533,96.409-18.357,140.937-33.56
		c19.456-6.643,35.941-11.513,36.633-10.821c0.691,0.691-10.79,18.97-25.511,40.621
		c-131.362,193.169-213.285,336.276-217.855,380.552c-1.971,19.104-1.322,21.298,8.154,27.506
		c7.813,5.119,12.957,5.864,21.328,3.073c14.702-4.897,16.623-15.836,3.364-19.166c-12.369-3.105-12.449-4.753-1.493-30.698
		c25.436-60.236,92.204-168.226,203.933-329.833c19.6-28.35,40.89-59.243,47.312-68.651l11.677-17.106l39.651,2.21
		c116.026,6.464,316.988,48.802,631.4,133.022c442.838,118.622,673.517,168.009,1063.65,227.717
		c413.292,63.252,755.708,101.102,1060.646,117.239l-0.001-0.005C6860.989,3150.67,6954.663,3151.588,7034.262,3150.857z"/>
	<path style="fill:#FFFFFF;" d="M6094.881,2455.488c63.246-8.765,361.372-31.555,414.345-31.696
		c32.45-0.078,44.754-3.592,39.925-11.406c-3.653-5.908-35.656-5.579-158.875,1.635c-256.584,15.021-590.697,53.099-818.779,93.316
		c-87.988,15.514-172.989,30.998-227.351,41.415c-30.18,5.782-55.778,9.607-56.884,8.502c-1.106-1.106,3.537-10.078,10.32-19.936
		c6.783-9.858,13.646-21.135,15.251-25.06c2.634-6.44,30.272-49.323,73.596-114.192c8.738-13.084,21.837-31.228,29.107-40.318
		c15.164-18.959,16.55-29.702,5.288-40.966c-15.251-15.251-23.896-10.692-62.013,32.712
		c-63.141,71.902-156.063,147.104-156.063,126.305c0-1.952,5.352-16.129,11.895-31.503c13.881-32.619,14.99-46.278,4.226-52.038
		c-13.854-7.415-21.633-4.236-59.736,24.405c-49.335,37.084-114.951,80.336-144.672,95.363
		c-55.234,27.927-105.125,39.635-105.125,24.677c0-4.908,1.573-5.245,8.14-1.728c12.048,6.448,39.85-8.452,67.654-36.257
		c36.194-36.193,40.213-65.967,11.11-82.302c-23.191-13.017-66.502,12.18-93.685,54.504c-36.332,56.57-25.018,95.607,27.722,95.648
		c46.664,0.036,133.167-45.423,239.76-125.997c15.154-11.455,15.705-8.942,4.479,20.395c-10.262,26.816-7.86,39.554,9.505,50.413
		c15.676,9.801,34.453,7.878,62.671-6.421c10.724-5.434,19.498-8.853,19.498-7.602c0,2.847-14.623,29.045-31.336,56.143
		c-12.839,20.819-14.971,22.257-40.035,27.029c-54.87,10.445-207.688,50.676-285.483,75.157
		c-205.017,64.516-345.52,153.635-450.272,285.601c-52.279,65.862-81.732,115.256-119.566,200.523
		c-51.912,116.995-77.567,222.398-82.924,340.696c-5.453,120.444,24.699,193.088,86.541,208.496v-0.003
		c23.031,5.739,46.511,4.202,71.726-4.696c133.577-47.129,356.428-309.699,628.959-741.062c24.8-39.253,55.32-87.429,67.823-107.055
		c12.503-19.627,34.251-54.419,48.328-77.318c14.078-22.898,32.589-52.744,41.136-66.327c8.548-13.583,18.23-29.641,21.519-35.685
		c3.287-6.045,14.705-24.748,25.372-41.562c19.236-30.317,19.582-30.608,41.604-35.01c12.214-2.442,32.913-6.844,45.998-9.78
		c139.038-31.214,474.602-84.801,658.195-105.109C6035.207,2462.81,6080.706,2457.451,6094.881,2455.488z M4983.304,2440.977
		c4.713,4.712-7.211,25.461-23.648,41.148c-26.365,25.163-46.354,38.891-46.354,31.837
		C4913.301,2496.952,4974.976,2432.649,4983.304,2440.977z M5193.174,2624.075c-7.064,10.905-25.034,40.344-39.932,65.423
		c-14.898,25.079-36.371,60.764-47.719,79.301s-30.994,50.654-43.659,71.371c-145.803,238.507-263.323,412.308-365.965,541.227
		c-118.207,148.469-212.275,240.399-280.488,274.11c-68.203,33.708-102.485,16.421-125.204-63.131
		c-8.243-28.863-9.258-40.417-8.953-101.941c0.306-61.625,1.754-76.264,12.954-130.846c26.47-129.028,76.923-250.867,147.26-355.619
		c109.263-162.724,259.189-261.6,512.444-337.945c90.787-27.369,242.216-65.494,249.4-62.793
		C5204.801,2603.793,5200.239,2613.172,5193.174,2624.075z"/>
	<path style="fill:#FFFFFF;" d="M2865.138,2403.158c4.216-13.281-12.311-28.08-29.72-26.615
		c-19.687,1.658-21.338,14.817-3.305,26.364v0.016C2849.046,2413.75,2861.746,2413.845,2865.138,2403.158z"/>
	<path style="fill:#FFFFFF;" d="M2804.125,2442.898c-16.45-13.501-26.964-10.01-54.535,18.11
		c-47.556,48.502-80.828,99.793-80.828,124.605c0,20.475,20.857,35.959,48.436,35.959c45.683,0,138.266-49.435,289.611-154.637
		c7.605-5.286,8.174-5.286,5.117,0c-3.436,5.942-59.901,94.037-91.492,142.741c-37.504,57.821-57.386,92.229-57.386,99.313
		c0,4.119,4.907,10.149,10.905,13.404l0.001,0.001c18.775,10.184,20.816,9.166,43.378-21.647
		c39.085-53.381,167.12-184.455,170.714-174.767c4.498,12.129,30.102,35.942,43.345,40.311
		c26.892,8.876,89.724-7.855,146.309-38.959l28.007-15.395l15.244,13.177c8.385,7.248,21.641,14.954,29.46,17.127
		c47.197,13.112,208.625-5.066,406.261-45.746c59.195-12.184,193.075-46.64,201.532-51.867c5.444-3.365,3.467-8.97-4.705-13.344
		c-6.087-3.258-21.987-0.634-70.379,11.613c-148.027,37.464-332.99,66.034-453.07,69.987l-61.458,2.023l32.809-16.224
		c24.242-11.987,35.888-20.476,44.607-32.51c14.771-20.394,14.81-28.553,0.206-43.158c-9.114-9.113-15.132-11.59-28.167-11.59
		c-25.935,0-65.857,23.153-96.805,56.141c-20.824,22.197-32.265,30.563-58.649,42.883c-63.229,29.527-114.897,41.985-133.295,32.14
		c-10.386-5.558-29.579-34.766-26.315-40.047c1.274-2.063,19.628-13.982,40.784-26.485c48.011-28.376,73.187-46.807,95.693-70.059
		c16.408-16.95,17.229-18.807,12.356-27.912c-2.871-5.365-10.573-11.969-17.118-14.682c-10.486-4.342-14.01-3.807-29.704,4.52
		c-22.995,12.198-43.434,27.713-103.533,78.588c-52.604,44.531-53.646,43.249-12.406-15.26
		c14.603-20.718,28.509-41.386,30.904-45.929c2.394-4.544,21.846-22.345,43.227-39.558
		c219.621-176.82,507.387-477.626,602.882-630.202c24.235-38.72,40.414-73.989,40.564-88.419
		c0.149-14.534-10.426-30.982-23.366-36.342c-28.568-11.834-90.301,26.965-176.044,110.645
		c-55.895,54.549-131.744,136.339-145.219,156.592c-3.4,5.11-30.27,38.715-59.71,74.676
		c-60.039,73.335-141.007,178.308-187.611,243.232c-68.114,94.889-100.829,141.006-121.248,170.919
		c-17.177,25.164-29.293,37.27-61.458,61.413c-110.016,82.58-208.611,143.703-273.157,169.344c-30.9,12.276-46.44,15.21-46.44,8.773
		c0-7.146,39.569-63.125,65.867-93.185C2816.091,2449.955,2815.091,2451.897,2804.125,2442.898z M3401.106,2449.705
		c18.514-9.572,23.767-8.031,12.783,3.75c-10.409,11.164-55.211,35.558-55.211,30.061
		C3358.678,2479.054,3385.17,2457.942,3401.106,2449.705z M3226.841,2232.632c219.953-303.382,377.896-491.255,483.087-574.628
		c17.11-13.562,59.427-39.585,64.369-39.585c8.882,0,1.74,22.85-17.972,57.493c-25.469,44.762-37.429,62.093-82.426,119.448
		c-90.118,114.866-196.319,229.644-313.63,338.96c-71.62,66.739-87.098,80.577-130.337,116.521
		C3196.469,2278.659,3195.9,2275.308,3226.841,2232.632z"/>
	<path style="fill:#FFFFFF;" d="M684.264,2992.222c99.519,14.267,163.549,17.689,355.861,19.009
		c182.983,1.259,185.488,1.011,163.752-16.086c-12.122-9.533-45.076-11.696-255.939-16.788
		c-163.465-3.947-198.713-6.619-291.429-22.087c-239.316-39.928-417.054-128.885-470.933-235.698
		c-15.709-31.143-26.514-72.998-26.579-102.966c-0.109-49.634,20.172-118.076,54.187-182.871
		c20.988-39.981,34.631-59.941,94.527-138.295c55.292-72.334,186.442-190.252,317.078-285.093
		c370.457-268.946,913.568-502.377,1227.178-527.447c79.713-6.373,141.118,6.192,153.586,31.428
		c17.182,34.773-9.787,121.311-68.92,221.151c-29.751,50.23-86.849,136.394-116.614,175.973
		c-12.959,17.233-23.563,32.27-23.563,33.418c0,3.904-127.405,171.813-214.279,282.399c-25.171,32.041-59.011,75.208-75.199,95.925
		c-16.188,20.717-51.091,65.382-77.561,99.256c-168.886,216.12-247.539,329.031-247.539,355.357
		c0,11.015,20.298,25.329,31.696,22.345c7.037-1.84,24.855-20.652,87.467-92.351c214.867-246.049,417.709-434.389,683.755-634.876
		c78.448-59.118,217.186-157.433,242.784-172.047c3.857-2.202,18.388-10.752,32.29-19c13.902-8.247,26.009-14.264,26.902-13.37
		c0.894,0.894-17.617,27.015-41.136,58.046c-23.519,31.032-48.092,63.83-54.606,72.885c-6.513,9.055-21.796,29.846-33.96,46.201
		c-33.435,44.955-158.395,228.453-158.395,232.598c0,0.969-7.761,13.711-17.247,28.315
		c-23.097,35.561-66.018,106.996-66.018,109.876c0,1.269-5.981,11.654-13.289,23.08c-16.408,25.65-77.367,142.793-91.126,175.114
		c-35.089,82.428-47.026,128.36-38.848,149.489c5.595,14.459,25.221,24.282,41.454,20.752
		c24.624-5.357,90.596-79.735,194.988-219.834c19.627-26.341,48.175-64.114,63.441-83.94s40.924-53.205,57.02-74.174
		c16.096-20.969,37.638-47.939,47.872-59.934c10.233-11.994,38.746-45.896,63.361-75.335
		c88.173-105.456,279.869-299.915,376.939-382.373c11.993-10.188,29.836-25.462,39.65-33.938
		c40.205-34.732,126.99-106.61,139.327-115.396c7.271-5.177,15.92-11.8,19.22-14.722c22.607-20.001,142.502-108.218,211.671-155.745
		c157.997-108.565,345.245-221.242,353.667-212.821c1.403,1.404-35.657,42.36-82.355,91.016
		c-110.471,115.102-168.69,179.029-277.362,304.56c-94.892,109.612-257.783,319.278-358.874,461.926
		c-187.211,264.169-368.708,565.629-504.887,838.604c-89.1,178.604-134.438,298.082-137.803,363.154
		c-1.839,35.545-1.715,36.157,9.028,44.607l-0.001,0.002c16.134,12.69,36.111,11.099,67.76-5.398
		c29.922-15.597,53.084-32.082,53.084-37.782c0-8.178-21.319-3.051-41.805,10.054c-27.173,17.382-49.291,26.719-56.625,23.905
		c-4.473-1.716-5.279-8.652-3.817-32.836c1.839-30.395,22.73-99.969,44.926-149.61c4.874-10.904,18.729-42.129,30.787-69.388
		c60.274-136.262,162.468-323.615,285.485-523.384c212.711-345.424,503.643-728.787,785.608-1035.201
		c13.209-14.355,36.508-40.078,51.773-57.162c15.266-17.085,55.571-60.924,89.567-97.421
		c122.361-131.359,130.299-143.811,108.331-169.918c-14.226-16.906-28.286-15.913-71.305,5.043
		c-74.916,36.49-253.755,153.812-426.67,279.906c-87.241,63.617-217.796,167.821-292.696,233.619
		c-18.537,16.283-47.063,41.357-63.392,55.718c-120.501,105.984-249.183,236.755-358.884,364.71
		c-102.795,119.899-128.689,151.851-221.615,273.457c-68.824,90.066-126.289,159.699-159.194,192.901
		c-32.869,33.166-41.467,38.996-41.467,28.119c0-12.144,16.726-58.531,33.853-93.884c24.985-51.577,77.249-145.277,107.101-192.016
		c6.965-10.903,26.597-42.128,43.626-69.387c65.323-104.563,142.457-217.612,224.14-328.505
		c18.713-25.405,37.421-51.543,41.574-58.086c4.151-6.543,19.435-28.033,33.963-47.758c36.166-49.101,61.713-92.151,64.916-109.393
		c2.297-12.366,1.029-16.254-8.953-27.424c-19.625-21.964-35.682-17.787-103.768,26.997
		c-95.253,62.651-301.139,218.419-430.094,325.395c-140.685,116.707-202.246,172.231-316.534,285.493
		c-43.022,42.635-79.196,76.544-80.386,75.354c-1.191-1.19,20.627-29.836,48.484-63.658
		c116.557-141.512,254.789-312.844,288.796-357.949c13.153-17.447,37.214-48.989,53.467-70.096
		c132.939-172.626,215.135-305.833,247.893-401.744c14.595-42.729,15.957-97.699,3.111-125.489
		c-17.295-37.414-61.435-68.533-112.155-79.072c-31.52-6.548-134.511-2.328-190.579,7.81
		c-109.063,19.72-259.282,64.047-379.379,111.947c-27.955,11.15-59.748,23.771-70.652,28.052
		c-23.922,9.387-71.419,30.303-116.366,51.244c-18.206,8.482-33.972,15.422-35.036,15.422c-5.888,0-184.756,92.543-248.948,128.801
		c-567.65,320.631-871.181,689.001-765.196,928.654c31.809,71.924,99.966,131.372,212.412,185.267
		C448.865,2942.465,559.152,2974.288,684.264,2992.222z"/>
</g>
</svg>
